# xmcd CD database file
#
# Track frame offsets:
#	182
#	40400
#	48112
#	90837
#	132952
#	179017
#	208440
#	226742
#	239627
#
# Disc length: 3610 seconds
#
# Revision: 0
# Processed by: cddbd v1.5.2PL0 Copyright (c) Steve Scherf et al.
# Submitted via: CDex 1.51
#
DISCID=790e1809
DTITLE=Jean-Marc Padovani - Tres Horas de Sol
DYEAR=1988
DGENRE=Jazz
TTITLE0=Malaguena. Sombra Y Sol
TTITLE1=El Entierro Del Conde De Orgaz
TTITLE2=Buleria
TTITLE3=La Cogida Y La Muerte. Fado
TTITLE4=Dessus Dessous
TTITLE5=Funicular Al Tibidabo
TTITLE6=La Sangre Derramada
TTITLE7=Taranta
TTITLE8=Plaza Real Barcelona
EXTD=YEAR: 1988
EXTT0=
EXTT1=
EXTT2=
EXTT3=
EXTT4=
EXTT5=
EXTT6=
EXTT7=
EXTT8=
PLAYORDER=
